<svg xmlns="http://www.w3.org/2000/svg" width="18" height="18" fill="none"><path fill="#FDD835" d="M0 0h18v18H0z" shape-rendering="crispEdges"/><path fill="#FFA726" d="M9 12.96V9H6.02v1.47c0 .26.5 1.21 1.72 2 .47.29.95.38 1.26.49"/><path fill="#E53935" d="M9 6H6.02v3H9z"/><path fill="#FFA726" d="M11.98 6H9v3h2.98z"/><path fill="#0D47A1" d="M0 0h5v18H0z"/><path fill="#EF5350" d="M13 0h5v18h-5z" shape-rendering="crispEdges"/><path stroke="#A3A6AF" d="M6.5 9.5v-3h5v3.01c.02.87-.14 1.38-.49 1.78s-.96.76-2.01 1.17a5.1 5.1 0 0 1-2-1.13c-.35-.4-.52-.92-.5-1.82z"/></svg>