<svg xmlns="http://www.w3.org/2000/svg" width="18" height="18" fill="none"><path fill="#0D47A1" d="M0 0h18v18H0z"/><path fill="#F8F9FD" d="M15.73 11.32c.17-.3.27-.63.27-1.02V5.4c-.36.24-.8.38-1.29.38-.7 0-1.32-.3-1.71-.78-.4.48-1.01.78-1.71.78-.49 0-.93-.14-1.29-.39v4.91c0 .39.1.72.27 1.02z"/><path fill="#2196F3" d="M10.25 11.3C11.1 12.64 13 13 13 13s1.92-.36 2.75-1.7z"/><circle cx="12.99" cy="8.82" r=".99" stroke="#FB8C00"/><path fill="#F8F9FD" d="M9 4V0H0v9h4V6l3 3h2V7L6 4z"/><path fill="#EF5350" d="M3 1V0H1v1H0v2h1v6h2V3h6V1z"/><path fill="#EF5350" d="M9 8 5 4H4l5 5z"/></svg>