<svg xmlns="http://www.w3.org/2000/svg" width="18" height="18"><path fill="#EF5350" d="M0 0h18v9H0z" shape-rendering="crispEdges"/><path fill="#2A2E39" d="M0 9h18v9H0z" shape-rendering="crispEdges"/><path fill="#FDD835" d="m6 11-.5.5c1.3 1 2.8 1.52 4.22.68 1.42-.83 2.2-2.76 1.74-3.97S9.7 5.53 8.05 5.37L8 6s3.28 1.5 2.5 3.5S8.33 12.51 6 11"/><path fill="#FDD835" d="M8.72 8.52 8 8l-.71.5.28-.76-.71-.52h.86L8 6.47l.27.76h.89l-.69.51zM12 13.14 6.84 10.2c-.3-.17-.49-.46-.54-.78-.04-.32.06-.64.29-.88 0-.08.1-.06.12 0 .05.27.2.52.4.72 1.57.95 4.89 2.87 5.39 2.87s-.5 1-.5 1z"/></svg>