<svg xmlns="http://www.w3.org/2000/svg" width="18" height="18"><path fill="#0D47A1" d="M0 0h18v18H0z" shape-rendering="crispEdges"/><path fill="#F8F9FD" d="M16.22 18 .87 9.03 15.92 0H18v18z" shape-rendering="crispEdges"/><path fill="#EF5350" d="M17 0h-2L0 9l15 9h2L2 9z" shape-rendering="crispEdges"/><path fill="#B71C1C" d="M15.65 8.66h-1.07a.85.85 0 0 0-.05-1.14.85.85 0 0 0 0-1.2l-.02.01c.33-.33.35-.89.02-1.22L9.7 9.93c.33.33.86.33 1.2 0l.09-.1 2-.2v1h1V9.55l1.26-.11.4-.79z"/><path fill="#FDD835" d="M9.78 11 9 10.57l.78-.57H15v1z"/></svg>