<svg xmlns="http://www.w3.org/2000/svg" width="18" height="18"><path fill="#1E88E5" d="M0 0h18v5H0z" shape-rendering="crispEdges"/><path fill="#EF5350" d="M0 5h18v8H0z" shape-rendering="crispEdges"/><path fill="#F8F9FD" d="M9.93 7.35a1.97 1.97 0 0 0-2.88.92c-.3.72-.12 1.56.45 2.12a2 2 0 0 0 2.45.25 2.54 2.54 0 0 1-4.11-.39 2.48 2.48 0 0 1 0-2.5 2.54 2.54 0 0 1 4.1-.4zm.81.65v.78l-.74.2.73.25v.7l.47-.55.72.24-.45-.59.5-.59-.77.21-.48-.65z"/><path fill="#4CAF50" d="M0 13h18v5H0z" shape-rendering="crispEdges"/></svg>