<svg xmlns="http://www.w3.org/2000/svg" width="18" height="18"><path fill="#0D47A1" d="M0 0h18v18H0z" shape-rendering="crispEdges"/><path fill="#F8F9FD" d="M9 14A5 5 0 1 0 9 4a5 5 0 0 0 0 10"/><path fill="#4CAF50" d="M9 13a4 4 0 1 0 0-8 4 4 0 0 0 0 8"/><path fill="#F8F9FD" d="M9.004 12.005a3 3 0 1 0 0-6 3 3 0 0 0 0 6"/><path fill="#0D47A1" d="M7 9v1.444L9 12l2-1.556V9z"/><path fill="#FDD835" d="M11.003 7h-4v1.997h4z"/><path fill="#EF5350" d="M0 0h18v2.001H0zm0 16h18v12H0z" shape-rendering="crispEdges"/></svg>