<svg xmlns="http://www.w3.org/2000/svg" width="18" height="18"><path fill="#1565C0" d="M0 2h18V0H0z" shape-rendering="crispEdges"/><path fill="#F8F9FD" d="M0 4h18V2H0z" shape-rendering="crispEdges"/><path fill="#1565C0" d="M0 6h18V4H0z" shape-rendering="crispEdges"/><path fill="#F8F9FD" d="M0 8h18V6H0z" shape-rendering="crispEdges"/><path fill="#1565C0" d="M0 10h18V8H0z" shape-rendering="crispEdges"/><path fill="#F8F9FD" d="M0 12h18v-2H0z" shape-rendering="crispEdges"/><path fill="#1565C0" d="M0 14h18v-2H0z" shape-rendering="crispEdges"/><path fill="#F8F9FD" d="M0 16h18v-2H0z" shape-rendering="crispEdges"/><path fill="#1565C0" d="M0 10h10V0H0zm0 8h18v-2H0z" shape-rendering="crispEdges"/><path fill="#F8F9FD" d="M6 10H4V6H0V4h4V0h2v4h4v2H6z" shape-rendering="crispEdges"/></svg>