<svg xmlns="http://www.w3.org/2000/svg" width="18" height="18"><path fill="#F0F3FA" d="M0 0h18v18H0z"/><path fill="#FDD835" d="M10.56 5.53C10.56 4.68 9.86 4 9 4s-1.56.68-1.56 1.53H4c0 .83.74 1.5 1.59 1.5h-.05c0 .83.69 1.5 1.54 1.5 0 .74.54 1.36 1.25 1.49h1.34a1.51 1.51 0 0 0 1.25-1.48c.85 0 1.54-.68 1.54-1.5h-.05c.85 0 1.59-.68 1.59-1.51z"/><path fill="#FDD835" d="m8.31 9.87-.97 2.14a4.47 4.47 0 0 0 3.32 0l-.97-2.14H8.3z"/><path fill="#F8F9FD" d="M7.04 7.04v2.63c0 1.5 1.96 1.96 1.96 1.96s1.96-.46 1.96-1.96V7.04z"/><path fill="#4A89DC" d="m3 8 1 3 1-3h1l-1.33 4H3.33L2 8zm11 4V8h1v4z"/><path fill="#EF5350" d="M7.83 7.89v3.19c.27.2.55.33.78.42V7.9h-.78zm2.34 0v3.19c-.27.2-.55.33-.78.42V7.9h.78z"/><path fill="#0D47A1" d="M11 7H7v1h4z"/></svg>