<?xml version="1.0" encoding="utf-8" ?>
<svg xmlns="http://www.w3.org/2000/svg" xmlns:xlink="http://www.w3.org/1999/xlink" width="210" height="210">
	<path fill="white" d="M105 5L105 5Q107.45486 5 109.90677 5.1204548Q112.35867 5.2409091 114.80172 5.4815278Q117.24476 5.722146 119.67304 6.0823483Q122.10133 6.4425516 124.50903 6.9214716Q126.91672 7.4003916 129.298 7.9968748Q131.67931 8.5933571 134.02847 9.3059664Q136.37762 10.018576 138.68898 10.845592Q141.00034 11.672611 143.26833 12.612046Q145.53632 13.551481 147.75549 14.60107Q149.97467 15.65066 152.13966 16.807875Q154.30466 17.965088 156.41025 19.227139Q158.51585 20.489191 160.55699 21.853039Q162.59814 23.216888 164.5699 24.679247Q166.54166 26.141607 168.4393 27.698956Q170.33693 29.256302 172.15585 30.904888Q173.97479 32.553471 175.71066 34.289322Q177.4465 36.025169 179.09509 37.844101Q180.74367 39.663036 182.30103 41.560673Q183.85837 43.458305 185.32072 45.430065Q186.78308 47.401833 188.14693 49.442974Q189.51077 51.484116 190.77283 53.589722Q192.03488 55.695328 193.19211 57.860329Q194.34932 60.025318 195.3989 62.244488Q196.44849 64.463654 197.38792 66.731651Q198.32736 68.999649 199.15437 71.311012Q199.98138 73.622375 200.694 75.971527Q201.40662 78.320686 202.0031 80.701981Q202.59958 83.083267 203.07849 85.490967Q203.5574 87.898659 203.91763 90.32695Q204.27783 92.755249 204.51846 95.198288Q204.75908 97.641327 204.87953 100.09323Q205 102.54514 205 105L205 105Q205 107.45486 204.87955 109.90677Q204.75908 112.35867 204.51846 114.80172Q204.27783 117.24476 203.91762 119.67304Q203.55742 122.10133 203.07851 124.50903Q202.59958 126.91672 202.0031 129.298Q201.40662 131.67931 200.69402 134.02847Q199.9814 136.37762 199.15439 138.68898Q198.32736 141.00034 197.38792 143.26833Q196.44849 145.53632 195.39891 147.75549Q194.34932 149.97467 193.19211 152.13966Q192.03488 154.30466 190.77284 156.41025Q189.51077 158.51585 188.14694 160.55699Q186.78308 162.59814 185.32074 164.5699Q183.85837 166.54166 182.30103 168.4393Q180.74367 170.33693 179.09508 172.15585Q177.4465 173.97479 175.71066 175.71066Q173.97479 177.4465 172.15587 179.09509Q170.33694 180.74367 168.43932 182.30103Q166.54167 183.85837 164.5699 185.32072Q162.59814 186.78308 160.55701 188.14693Q158.51587 189.51077 156.41025 190.77283Q154.30466 192.03488 152.13966 193.19211Q149.97467 194.34932 147.75549 195.3989Q145.53632 196.44849 143.26833 197.38792Q141.00034 198.32736 138.68896 199.15437Q136.37762 199.98138 134.02846 200.694Q131.67929 201.40662 129.298 202.0031Q126.91671 202.59958 124.50902 203.07849Q122.10133 203.5574 119.67303 203.91763Q117.24475 204.27783 114.80171 204.51846Q112.35867 204.75908 109.90676 204.87953Q107.45486 205 105 205L105 205Q102.54514 205 100.09323 204.87955Q97.641327 204.75908 95.198288 204.51846Q92.755241 204.27783 90.32695 203.91762Q87.898651 203.55742 85.490959 203.07851Q83.083267 202.59958 80.701973 202.0031Q78.320679 201.40662 75.971527 200.69402Q73.622368 199.9814 71.311005 199.15439Q68.999641 198.32736 66.731644 197.38792Q64.463646 196.44849 62.24448 195.39891Q60.025307 194.34932 57.860317 193.19211Q55.69532 192.03488 53.589714 190.77284Q51.484108 189.51077 49.44297 188.14694Q47.401825 186.78308 45.430065 185.32074Q43.458302 183.85837 41.560669 182.30103Q39.663033 180.74367 37.844101 179.09508Q36.025169 177.4465 34.289318 175.71066Q32.553467 173.97479 30.904882 172.15587Q29.256298 170.33694 27.698952 168.43932Q26.141603 166.54167 24.679243 164.5699Q23.216885 162.59814 21.853037 160.55701Q20.489189 158.51587 19.227137 156.41025Q17.965086 154.30466 16.807873 152.13966Q15.650658 149.97467 14.601068 147.75549Q13.55148 145.53632 12.612045 143.26833Q11.67261 141.00034 10.845592 138.68896Q10.018575 136.37762 9.3059664 134.02846Q8.5933571 131.67929 7.9968743 129.298Q7.4003916 126.91671 6.9214716 124.50902Q6.4425516 122.10133 6.0823488 119.67303Q5.722146 117.24475 5.4815278 114.80171Q5.2409091 112.35867 5.1204548 109.90676Q5 107.45486 5 105L5 105Q5 102.54514 5.1204548 100.09323Q5.2409091 97.641327 5.4815278 95.198288Q5.722146 92.755241 6.0823483 90.32695Q6.4425516 87.898651 6.9214716 85.490959Q7.4003916 83.083267 7.9968748 80.701973Q8.5933571 78.320679 9.3059664 75.971527Q10.018576 73.622368 10.845592 71.311005Q11.672611 68.999641 12.612046 66.731644Q13.551481 64.463646 14.60107 62.24448Q15.65066 60.025307 16.807875 57.860317Q17.965088 55.69532 19.227139 53.589714Q20.489191 51.484108 21.853039 49.44297Q23.216888 47.401825 24.679247 45.430065Q26.141607 43.458302 27.698956 41.560669Q29.256302 39.663033 30.904888 37.844101Q32.553471 36.025169 34.289322 34.289318Q36.025169 32.553467 37.844101 30.904882Q39.663036 29.256298 41.560673 27.698952Q43.458305 26.141603 45.430065 24.679243Q47.401833 23.216885 49.442974 21.853037Q51.484116 20.489189 53.589722 19.227137Q55.695328 17.965086 57.860329 16.807873Q60.025318 15.650658 62.244488 14.601068Q64.463654 13.55148 66.731651 12.612045Q68.999649 11.67261 71.311012 10.845592Q73.622375 10.018575 75.971527 9.3059664Q78.320686 8.5933571 80.701981 7.9968743Q83.083267 7.4003916 85.490967 6.9214716Q87.898659 6.4425516 90.32695 6.0823488Q92.755249 5.722146 95.198288 5.4815278Q97.641327 5.2409091 100.09323 5.1204548Q102.54514 5 105 5Z"/>
	<path fill="none" stroke="#FF8A8A" stroke-width="2.5" stroke-linecap="round" stroke-linejoin="round" d="M105 5L105 5Q107.45486 5 109.90677 5.1204548Q112.35867 5.2409091 114.80172 5.4815278Q117.24476 5.722146 119.67304 6.0823483Q122.10133 6.4425516 124.50903 6.9214716Q126.91672 7.4003916 129.298 7.9968748Q131.67931 8.5933571 134.02847 9.3059664Q136.37762 10.018576 138.68898 10.845592Q141.00034 11.672611 143.26833 12.612046Q145.53632 13.551481 147.75549 14.60107Q149.97467 15.65066 152.13966 16.807875Q154.30466 17.965088 156.41025 19.227139Q158.51585 20.489191 160.55699 21.853039Q162.59814 23.216888 164.5699 24.679247Q166.54166 26.141607 168.4393 27.698956Q170.33693 29.256302 172.15585 30.904888Q173.97479 32.553471 175.71066 34.289322Q177.4465 36.025169 179.09509 37.844101Q180.74367 39.663036 182.30103 41.560673Q183.85837 43.458305 185.32072 45.430065Q186.78308 47.401833 188.14693 49.442974Q189.51077 51.484116 190.77283 53.589722Q192.03488 55.695328 193.19211 57.860329Q194.34932 60.025318 195.3989 62.244488Q196.44849 64.463654 197.38792 66.731651Q198.32736 68.999649 199.15437 71.311012Q199.98138 73.622375 200.694 75.971527Q201.40662 78.320686 202.0031 80.701981Q202.59958 83.083267 203.07849 85.490967Q203.5574 87.898659 203.91763 90.32695Q204.27783 92.755249 204.51846 95.198288Q204.75908 97.641327 204.87953 100.09323Q205 102.54514 205 105L205 105Q205 107.45486 204.87955 109.90677Q204.75908 112.35867 204.51846 114.80172Q204.27783 117.24476 203.91762 119.67304Q203.55742 122.10133 203.07851 124.50903Q202.59958 126.91672 202.0031 129.298Q201.40662 131.67931 200.69402 134.02847Q199.9814 136.37762 199.15439 138.68898Q198.32736 141.00034 197.38792 143.26833Q196.44849 145.53632 195.39891 147.75549Q194.34932 149.97467 193.19211 152.13966Q192.03488 154.30466 190.77284 156.41025Q189.51077 158.51585 188.14694 160.55699Q186.78308 162.59814 185.32074 164.5699Q183.85837 166.54166 182.30103 168.4393Q180.74367 170.33693 179.09508 172.15585Q177.4465 173.97479 175.71066 175.71066Q173.97479 177.4465 172.15587 179.09509Q170.33694 180.74367 168.43932 182.30103Q166.54167 183.85837 164.5699 185.32072Q162.59814 186.78308 160.55701 188.14693Q158.51587 189.51077 156.41025 190.77283Q154.30466 192.03488 152.13966 193.19211Q149.97467 194.34932 147.75549 195.3989Q145.53632 196.44849 143.26833 197.38792Q141.00034 198.32736 138.68896 199.15437Q136.37762 199.98138 134.02846 200.694Q131.67929 201.40662 129.298 202.0031Q126.91671 202.59958 124.50902 203.07849Q122.10133 203.5574 119.67303 203.91763Q117.24475 204.27783 114.80171 204.51846Q112.35867 204.75908 109.90676 204.87953Q107.45486 205 105 205L105 205Q102.54514 205 100.09323 204.87955Q97.641327 204.75908 95.198288 204.51846Q92.755241 204.27783 90.32695 203.91762Q87.898651 203.55742 85.490959 203.07851Q83.083267 202.59958 80.701973 202.0031Q78.320679 201.40662 75.971527 200.69402Q73.622368 199.9814 71.311005 199.15439Q68.999641 198.32736 66.731644 197.38792Q64.463646 196.44849 62.24448 195.39891Q60.025307 194.34932 57.860317 193.19211Q55.69532 192.03488 53.589714 190.77284Q51.484108 189.51077 49.44297 188.14694Q47.401825 186.78308 45.430065 185.32074Q43.458302 183.85837 41.560669 182.30103Q39.663033 180.74367 37.844101 179.09508Q36.025169 177.4465 34.289318 175.71066Q32.553467 173.97479 30.904882 172.15587Q29.256298 170.33694 27.698952 168.43932Q26.141603 166.54167 24.679243 164.5699Q23.216885 162.59814 21.853037 160.55701Q20.489189 158.51587 19.227137 156.41025Q17.965086 154.30466 16.807873 152.13966Q15.650658 149.97467 14.601068 147.75549Q13.55148 145.53632 12.612045 143.26833Q11.67261 141.00034 10.845592 138.68896Q10.018575 136.37762 9.3059664 134.02846Q8.5933571 131.67929 7.9968743 129.298Q7.4003916 126.91671 6.9214716 124.50902Q6.4425516 122.10133 6.0823488 119.67303Q5.722146 117.24475 5.4815278 114.80171Q5.2409091 112.35867 5.1204548 109.90676Q5 107.45486 5 105L5 105Q5 102.54514 5.1204548 100.09323Q5.2409091 97.641327 5.4815278 95.198288Q5.722146 92.755241 6.0823483 90.32695Q6.4425516 87.898651 6.9214716 85.490959Q7.4003916 83.083267 7.9968748 80.701973Q8.5933571 78.320679 9.3059664 75.971527Q10.018576 73.622368 10.845592 71.311005Q11.672611 68.999641 12.612046 66.731644Q13.551481 64.463646 14.60107 62.24448Q15.65066 60.025307 16.807875 57.860317Q17.965088 55.69532 19.227139 53.589714Q20.489191 51.484108 21.853039 49.44297Q23.216888 47.401825 24.679247 45.430065Q26.141607 43.458302 27.698956 41.560669Q29.256302 39.663033 30.904888 37.844101Q32.553471 36.025169 34.289322 34.289318Q36.025169 32.553467 37.844101 30.904882Q39.663036 29.256298 41.560673 27.698952Q43.458305 26.141603 45.430065 24.679243Q47.401833 23.216885 49.442974 21.853037Q51.484116 20.489189 53.589722 19.227137Q55.695328 17.965086 57.860329 16.807873Q60.025318 15.650658 62.244488 14.601068Q64.463654 13.55148 66.731651 12.612045Q68.999649 11.67261 71.311012 10.845592Q73.622375 10.018575 75.971527 9.3059664Q78.320686 8.5933571 80.701981 7.9968743Q83.083267 7.4003916 85.490967 6.9214716Q87.898659 6.4425516 90.32695 6.0823488Q92.755249 5.722146 95.198288 5.4815278Q97.641327 5.2409091 100.09323 5.1204548Q102.54514 5 105 5Z"/>
	<path fill="none" stroke="#FF8A8A" stroke-width="2.5" stroke-linecap="round" stroke-linejoin="round" transform="matrix(0.5 0.866025 -0.866025 0.5 143.433 -38.4327)" d="M105 22.5L145 22.5Q146.0433 22.5 147.08537 22.551193Q148.12744 22.602386 149.16574 22.704651Q150.20401 22.806911 151.23602 22.959999Q152.26805 23.113083 153.29132 23.316626Q154.31459 23.520166 155.32664 23.77367Q156.33868 24.027176 157.33708 24.330036Q158.33548 24.632895 159.31779 24.984377Q160.30013 25.335857 161.26402 25.735117Q162.22794 26.134377 163.17108 26.580452Q164.11423 27.026527 165.03436 27.518345Q165.95448 28.01016 166.84937 28.546532Q167.74423 29.082905 168.61172 29.662539Q169.47922 30.242174 170.3172 30.863678Q171.15521 31.48518 171.9617 32.147053Q172.76819 32.808926 173.54124 33.509575Q174.3143 34.210224 175.05203 34.94796Q175.78976 35.685699 176.49043 36.458744Q177.19107 37.231789 177.85295 38.038284Q178.51482 38.84478 179.13632 39.682777Q179.75781 40.520775 180.33746 41.38826Q180.9171 42.255745 181.45348 43.150631Q181.98984 44.045513 182.48166 44.965637Q182.97348 45.885757 183.41954 46.828903Q183.86562 47.772049 184.26488 48.735947Q184.66415 49.699844 185.01562 50.682175Q185.36713 51.664505 185.66998 52.662895Q185.97284 53.661285 186.22635 54.673336Q186.47984 55.685387 186.68338 56.708656Q186.88693 57.731926 187.04001 58.76395Q187.19308 59.795975 187.29535 60.83427Q187.39761 61.872562 187.44879 62.914623Q187.5 63.95668 187.5 65L187.5 145Q187.5 146.0433 187.44879 147.08537Q187.39761 148.12744 187.29535 149.16574Q187.19308 150.20401 187.04001 151.23602Q186.88693 152.26805 186.68338 153.29132Q186.47984 154.31459 186.22633 155.32664Q185.97284 156.33868 185.66998 157.33708Q185.36713 158.33548 185.01562 159.31779Q184.66412 160.30013 184.26486 161.26402Q183.8656 162.22794 183.41954 163.17108Q182.97348 164.11423 182.48166 165.03436Q181.98984 165.95448 181.45346 166.84937Q180.91708 167.74423 180.33745 168.61172Q179.75781 169.47922 179.13632 170.3172Q178.5148 171.15521 177.85294 171.9617Q177.19107 172.76819 176.49043 173.54124Q175.78976 174.3143 175.05203 175.05203Q174.3143 175.78976 173.54126 176.49043Q172.7682 177.19107 171.96172 177.85295Q171.15521 178.51482 170.31721 179.13632Q169.47922 179.75781 168.61172 180.33746Q167.74423 180.9171 166.84937 181.45348Q165.95448 181.98984 165.03436 182.48166Q164.11423 182.97348 163.17108 183.41954Q162.22794 183.86562 161.26402 184.26488Q160.30013 184.66415 159.31779 185.01562Q158.33548 185.36713 157.33708 185.66998Q156.33868 185.97284 155.32663 186.22635Q154.31459 186.47984 153.29132 186.68338Q152.26805 186.88693 151.23602 187.04001Q150.20401 187.19308 149.16573 187.29535Q148.12744 187.39761 147.08537 187.44879Q146.0433 187.5 145 187.5L65 187.5Q63.95668 187.5 62.914623 187.44879Q61.872562 187.39761 60.83427 187.29535Q59.795975 187.19308 58.76395 187.04001Q57.731926 186.88693 56.708656 186.68338Q55.685387 186.47984 54.67334 186.22633Q53.661285 185.97284 52.662899 185.66998Q51.664505 185.36713 50.682175 185.01562Q49.699844 184.66412 48.735947 184.26486Q47.772049 183.8656 46.828903 183.41954Q45.885757 182.97348 44.965633 182.48166Q44.045509 181.98984 43.150623 181.45346Q42.255741 180.91708 41.388256 180.33745Q40.520771 179.75781 39.682774 179.13632Q38.844772 178.5148 38.03828 177.85294Q37.231785 177.19107 36.45874 176.49043Q35.685692 175.78976 34.947956 175.05203Q34.21022 174.3143 33.509571 173.54126Q32.808922 172.7682 32.147053 171.96172Q31.485176 171.15521 30.863674 170.31721Q30.242172 169.47922 29.662537 168.61172Q29.082901 167.74423 28.54653 166.84937Q28.010159 165.95448 27.518345 165.03436Q27.026527 164.11423 26.580452 163.17108Q26.134377 162.22794 25.735117 161.26402Q25.335857 160.30013 24.984375 159.31779Q24.632895 158.33548 24.330036 157.33708Q24.027176 156.33868 23.77367 155.32663Q23.520164 154.31459 23.316624 153.29132Q23.113083 152.26805 22.959997 151.23602Q22.806911 150.20401 22.704651 149.16573Q22.602386 148.12744 22.551193 147.08537Q22.5 146.0433 22.5 145L22.5 65Q22.5 63.95668 22.551193 62.914623Q22.602386 61.872562 22.704651 60.83427Q22.806911 59.795975 22.959999 58.76395Q23.113083 57.731926 23.316626 56.708656Q23.520166 55.685387 23.77367 54.67334Q24.027176 53.661285 24.330036 52.662899Q24.632895 51.664505 24.984377 50.682175Q25.335857 49.699844 25.735117 48.735947Q26.134377 47.772049 26.580452 46.828903Q27.026527 45.885757 27.518345 44.965633Q28.01016 44.045509 28.546532 43.150623Q29.082905 42.255741 29.662539 41.388256Q30.242174 40.520771 30.863678 39.682774Q31.48518 38.844772 32.147053 38.03828Q32.808926 37.231785 33.509575 36.45874Q34.210224 35.685692 34.94796 34.947956Q35.685699 34.21022 36.458744 33.509571Q37.231789 32.808922 38.038284 32.147053Q38.84478 31.485176 39.682777 30.863674Q40.520775 30.242172 41.38826 29.662537Q42.255745 29.082901 43.150631 28.54653Q44.045513 28.010159 44.965637 27.518345Q45.885757 27.026527 46.828903 26.580452Q47.772049 26.134377 48.735947 25.735117Q49.699844 25.335857 50.682175 24.984375Q51.664505 24.632896 52.662895 24.330038Q53.661285 24.027178 54.673336 23.77367Q55.685387 23.520166 56.708656 23.316626Q57.731926 23.113083 58.76395 22.959997Q59.795975 22.806911 60.83427 22.704651Q61.872562 22.602386 62.914623 22.551193Q63.95668 22.5 65 22.5L105 22.5Z"/>
	<path fill="none" stroke="#FF8A8A" stroke-width="2.5" stroke-linecap="round" stroke-linejoin="round" transform="matrix(0.258819 0.965926 -0.965926 0.258819 179.246 -23.5982)" d="M105 32.5L140 32.5Q140.92056 32.5 141.84003 32.54517Q142.75949 32.59034 143.67564 32.680573Q144.59178 32.770805 145.5024 32.90588Q146.41299 33.040955 147.31587 33.220551Q148.21875 33.400146 149.11176 33.623825Q150.00473 33.847507 150.88567 34.114738Q151.7666 34.381966 152.63336 34.692097Q153.50012 35.002228 154.35062 35.354515Q155.20111 35.706802 156.03331 36.100395Q156.86549 36.493996 157.67737 36.927952Q158.48923 37.361908 159.27884 37.835175Q160.06844 38.308441 160.83386 38.819885Q161.5993 39.331329 162.33871 39.879715Q163.07812 40.428101 163.78975 41.012104Q164.50136 41.596107 165.18346 42.214325Q165.86555 42.832542 166.51649 43.48349Q167.16745 44.13443 167.78566 44.816532Q168.4039 45.498634 168.9879 46.210251Q169.5719 46.921864 170.12029 47.661274Q170.66867 48.400684 171.18011 49.166111Q171.69156 49.931541 172.16481 50.721146Q172.63809 51.510746 173.07205 52.32262Q173.50601 53.134491 173.8996 53.966675Q174.29318 54.798866 174.64548 55.649364Q174.99777 56.499863 175.30791 57.366627Q175.61804 58.233383 175.88527 59.114323Q176.1525 59.995255 176.37617 60.888237Q176.59985 61.781223 176.77945 62.684113Q176.95905 63.586998 177.09412 64.497604Q177.22922 65.408218 177.31944 66.324356Q177.40967 67.240494 177.45483 68.159958Q177.5 69.079422 177.5 70L177.5 140Q177.5 140.92056 177.45483 141.84003Q177.40967 142.75949 177.31944 143.67564Q177.22922 144.59178 177.09413 145.5024Q176.95905 146.41299 176.77945 147.31587Q176.59985 148.21875 176.37617 149.11176Q176.1525 150.00473 175.88528 150.88567Q175.61804 151.7666 175.30791 152.63336Q174.99777 153.50012 174.64548 154.35062Q174.29318 155.20111 173.8996 156.03331Q173.50601 156.86549 173.07205 157.67737Q172.63809 158.48923 172.16483 159.27884Q171.69154 160.06844 171.1801 160.83386Q170.66866 161.5993 170.12027 162.33871Q169.5719 163.07812 168.9879 163.78975Q168.4039 164.50136 167.78566 165.18346Q167.16745 165.86555 166.51649 166.51649Q165.86555 167.16745 165.18346 167.78566Q164.50136 168.4039 163.78975 168.9879Q163.07812 169.5719 162.33871 170.12029Q161.5993 170.66867 160.83386 171.18011Q160.06844 171.69156 159.27884 172.16481Q158.48923 172.63809 157.67737 173.07205Q156.86549 173.50601 156.03329 173.8996Q155.20111 174.29318 154.35062 174.64548Q153.50012 174.99777 152.63336 175.30791Q151.7666 175.61804 150.88567 175.88527Q150.00473 176.1525 149.11174 176.37617Q148.21875 176.59985 147.31587 176.77945Q146.41299 176.95905 145.50238 177.09412Q144.59178 177.22922 143.67564 177.31944Q142.75949 177.40967 141.84003 177.45483Q140.92056 177.5 140 177.5L70 177.5Q69.079422 177.5 68.159958 177.45483Q67.240494 177.40967 66.324356 177.31944Q65.408218 177.22922 64.497604 177.09413Q63.58699 176.95905 62.684109 176.77945Q61.781219 176.59985 60.888237 176.37617Q59.995255 176.1525 59.114323 175.88528Q58.233383 175.61804 57.366623 175.30791Q56.499863 174.99777 55.649364 174.64548Q54.798866 174.29318 53.966682 173.8996Q53.134491 173.50601 52.32262 173.07205Q51.510746 172.63809 50.721146 172.16483Q49.931541 171.69154 49.166111 171.1801Q48.400684 170.66866 47.661274 170.12027Q46.921864 169.5719 46.210251 168.9879Q45.498634 168.4039 44.816532 167.78566Q44.13443 167.16745 43.48349 166.51649Q42.832542 165.86555 42.214325 165.18346Q41.596107 164.50136 41.012104 163.78975Q40.428101 163.07812 39.879715 162.33871Q39.331329 161.5993 38.819885 160.83386Q38.308441 160.06844 37.835175 159.27884Q37.361908 158.48923 36.927956 157.67737Q36.493996 156.86549 36.100399 156.03329Q35.706802 155.20111 35.354515 154.35062Q35.002228 153.50012 34.692097 152.63336Q34.381966 151.7666 34.114738 150.88567Q33.847507 150.00473 33.623825 149.11174Q33.400146 148.21875 33.220551 147.31587Q33.040955 146.41299 32.90588 145.50238Q32.770805 144.59178 32.680573 143.67564Q32.59034 142.75949 32.545174 141.84003Q32.5 140.92056 32.5 140L32.5 70Q32.5 69.079422 32.54517 68.159958Q32.59034 67.240494 32.680573 66.324356Q32.770805 65.408218 32.90588 64.497604Q33.040955 63.58699 33.220547 62.684109Q33.400143 61.781219 33.623825 60.888237Q33.847504 59.995255 34.114735 59.114323Q34.381962 58.233383 34.692093 57.366623Q35.002224 56.499863 35.354511 55.649364Q35.706802 54.798866 36.100395 53.966682Q36.493992 53.134491 36.927948 52.32262Q37.361904 51.510746 37.835175 50.721146Q38.308441 49.931541 38.819885 49.166111Q39.331329 48.400684 39.879715 47.661274Q40.428101 46.921864 41.012104 46.210251Q41.596107 45.498634 42.214325 44.816532Q42.832542 44.13443 43.48349 43.48349Q44.13443 42.832542 44.816532 42.214325Q45.498634 41.596107 46.210251 41.012104Q46.921864 40.428101 47.661274 39.879715Q48.400684 39.331329 49.166111 38.819885Q49.931541 38.308441 50.721146 37.835175Q51.510746 37.361908 52.32262 36.927956Q53.134491 36.493996 53.966675 36.100399Q54.798866 35.706802 55.649364 35.354515Q56.499863 35.002228 57.366627 34.692097Q58.233383 34.381966 59.114323 34.114738Q59.995255 33.847507 60.888237 33.623825Q61.781223 33.400146 62.684113 33.220551Q63.586998 33.040955 64.497604 32.90588Q65.408218 32.770805 66.324356 32.680573Q67.240494 32.59034 68.159958 32.545174Q69.079422 32.5 70 32.5L105 32.5Z"/>
	<path fill="none" stroke="#FF8A8A" stroke-width="2.5" stroke-linecap="round" stroke-linejoin="round" transform="matrix(0 1 -1 0 210 0)" d="M105 42.5L135 42.5Q135.79782 42.5 136.59468 42.539146Q137.39156 42.578293 138.18555 42.656498Q138.97952 42.734695 139.76872 42.851765Q140.55792 42.968826 141.34042 43.124477Q142.12292 43.280128 142.89685 43.473984Q143.67076 43.667843 144.43423 43.899441Q145.19771 44.131035 145.9489 44.399815Q146.7001 44.668594 147.43719 44.973911Q148.1743 45.279228 148.89552 45.620342Q149.61676 45.961464 150.32039 46.337559Q151.024 46.713654 151.70833 47.123817Q152.39265 47.533981 153.05603 47.977234Q153.71939 48.420486 154.36021 48.895752Q155.00104 49.371021 155.61778 49.877163Q156.23451 50.383301 156.82567 50.919086Q157.41681 51.454876 157.98096 52.019028Q158.5451 52.583176 159.0809 53.174332Q159.6167 53.765488 160.12283 54.382217Q160.62897 54.998947 161.10423 55.639767Q161.5795 56.28059 162.02275 56.943962Q162.466 57.60733 162.87617 58.291656Q163.28635 58.975979 163.66245 59.679604Q164.03853 60.383224 164.37964 61.104454Q164.72076 61.825684 165.02608 62.562782Q165.33139 63.299881 165.60017 64.051071Q165.86896 64.802269 166.10056 65.565742Q166.33215 66.329216 166.526 67.103134Q166.71986 67.87706 166.87552 68.659561Q167.03116 69.442062 167.14824 70.231262Q167.2653 71.020454 167.34351 71.814445Q167.42171 72.608429 167.46086 73.405304Q167.5 74.202171 167.5 75L167.5 135Q167.5 135.79782 167.46085 136.59468Q167.42172 137.39156 167.34352 138.18555Q167.26532 138.97952 167.14824 139.76872Q167.03116 140.55792 166.87552 141.34042Q166.71986 142.12292 166.52602 142.89685Q166.33215 143.67076 166.10057 144.43423Q165.86896 145.19771 165.60019 145.9489Q165.33139 146.7001 165.02608 147.43719Q164.72076 148.1743 164.37964 148.89552Q164.03853 149.61676 163.66245 150.32039Q163.28635 151.024 162.87616 151.70833Q162.466 152.39265 162.02275 153.05603Q161.5795 153.71939 161.10423 154.36021Q160.62897 155.00104 160.12283 155.61778Q159.6167 156.23451 159.0809 156.82567Q158.5451 157.41681 157.98096 157.98096Q157.41681 158.5451 156.82565 159.0809Q156.2345 159.6167 155.61777 160.12283Q155.00104 160.62897 154.36021 161.10423Q153.71939 161.5795 153.05602 162.02275Q152.39264 162.466 151.70831 162.87617Q151.02399 163.28635 150.32037 163.66245Q149.61676 164.03853 148.89552 164.37964Q148.1743 164.72076 147.43719 165.02608Q146.7001 165.33139 145.94891 165.60017Q145.19771 165.86896 144.43423 166.10056Q143.67076 166.33215 142.89685 166.526Q142.12292 166.71986 141.34042 166.87552Q140.55792 167.03116 139.76874 167.14824Q138.97954 167.2653 138.18556 167.34351Q137.39157 167.42169 136.5947 167.46085Q135.79782 167.5 135 167.5L75 167.5Q74.202171 167.5 73.405304 167.46085Q72.608429 167.42171 71.814445 167.34352Q71.020454 167.26532 70.231255 167.14824Q69.442062 167.03116 68.659554 166.87552Q67.877052 166.71986 67.103134 166.52602Q66.329216 166.33215 65.565742 166.10057Q64.802269 165.86896 64.051079 165.60019Q63.299881 165.33139 62.562782 165.02608Q61.825684 164.72076 61.104454 164.37964Q60.383224 164.03853 59.6796 163.66245Q58.975975 163.28635 58.291653 162.87616Q57.60733 162.466 56.943958 162.02275Q56.280586 161.5795 55.639763 161.10423Q54.99894 160.62897 54.382214 160.12283Q53.76548 159.6167 53.174328 159.0809Q52.583176 158.5451 52.019024 157.98096Q51.454872 157.41681 50.919083 156.82565Q50.383293 156.2345 49.877159 155.61777Q49.371017 155.00104 48.895752 154.36021Q48.420486 153.71939 47.977234 153.05602Q47.533981 152.39264 47.123817 151.70831Q46.71365 151.02399 46.337555 150.32037Q45.961456 149.61676 45.620338 148.89552Q45.279221 148.1743 44.973907 147.43719Q44.668587 146.7001 44.399807 145.94891Q44.131031 145.19771 43.899437 144.43423Q43.667839 143.67076 43.473984 142.89685Q43.280125 142.12292 43.124477 141.34042Q42.968826 140.55792 42.851765 139.76874Q42.734695 138.97954 42.656498 138.18556Q42.578293 137.39157 42.539146 136.5947Q42.5 135.79782 42.5 135L42.5 75Q42.5 74.202171 42.539146 73.405304Q42.578293 72.608429 42.656498 71.814445Q42.734695 71.020454 42.851765 70.231255Q42.968826 69.442062 43.124477 68.659554Q43.280128 67.877052 43.473984 67.103134Q43.667843 66.329216 43.899441 65.565742Q44.131035 64.802269 44.399815 64.051079Q44.668594 63.299881 44.973911 62.562782Q45.279228 61.825684 45.620342 61.104454Q45.96146 60.383224 46.337555 59.6796Q46.713646 58.975975 47.12381 58.291653Q47.533981 57.60733 47.97723 56.943958Q48.420483 56.280586 48.895748 55.639763Q49.371017 54.99894 49.877159 54.382214Q50.383293 53.76548 50.919083 53.174328Q51.454872 52.583176 52.019028 52.019024Q52.583176 51.454872 53.174332 50.919083Q53.765488 50.383293 54.382217 49.877159Q54.998947 49.371017 55.639767 48.895752Q56.28059 48.420486 56.943962 47.977234Q57.60733 47.533981 58.291656 47.123817Q58.975979 46.71365 59.679604 46.337555Q60.383224 45.961456 61.104454 45.620338Q61.825684 45.279221 62.562782 44.973907Q63.299881 44.668591 64.051071 44.399811Q64.802269 44.131035 65.565742 43.899441Q66.329216 43.667843 67.103134 43.473988Q67.87706 43.280128 68.659561 43.124477Q69.442062 42.968826 70.231262 42.851765Q71.020454 42.734695 71.814445 42.656498Q72.608429 42.578293 73.405304 42.539146Q74.202171 42.5 75 42.5L105 42.5Z"/>
	<path fill="none" stroke="#FF8A8A" stroke-width="2.5" stroke-linecap="round" stroke-linejoin="round" transform="matrix(-0.258819 0.965926 -0.965926 -0.258819 233.598 30.7538)" d="M105 52.5L130 52.5Q130.67508 52.5 131.34935 52.533127Q132.02362 52.566254 132.69547 52.632423Q133.36729 52.698593 134.03506 52.797646Q134.70285 52.896702 135.36496 53.028404Q136.02707 53.160107 136.68193 53.324139Q137.33679 53.488174 137.98282 53.684143Q138.62883 53.880108 139.26445 54.107536Q139.90009 54.334965 140.52377 54.593307Q141.14749 54.85165 141.75775 55.140289Q142.36803 55.428925 142.96339 55.747162Q143.55878 56.065392 144.13782 56.412453Q144.71686 56.759518 145.27817 57.134579Q145.83948 57.509636 146.38173 57.911785Q146.92395 58.313934 147.4458 58.74221Q147.96765 59.170479 148.46785 59.623837Q148.96806 60.077198 149.44542 60.554558Q149.92279 61.031914 150.37614 61.532127Q150.8295 62.032333 151.25777 62.554184Q151.68604 63.076027 152.0882 63.618263Q152.49033 64.160492 152.86539 64.721809Q153.24045 65.283127 153.58751 65.862175Q153.93459 66.441216 154.25282 67.036591Q154.57104 67.631958 154.85968 68.242233Q155.14832 68.852501 155.40668 69.476196Q155.66501 70.099899 155.89244 70.735519Q156.11987 71.37114 156.31586 72.017166Q156.51181 72.663177 156.67584 73.318039Q156.83987 73.972893 156.97159 74.63501Q157.1033 75.297134 157.20235 75.96492Q157.30142 76.632698 157.36758 77.304535Q157.43375 77.976364 157.46687 78.650642Q157.5 79.324913 157.5 80L157.5 130Q157.5 130.67508 157.46687 131.34935Q157.43375 132.02362 157.36758 132.69547Q157.30142 133.36729 157.20235 134.03506Q157.1033 134.70285 156.97159 135.36496Q156.83987 136.02707 156.67584 136.68193Q156.51181 137.33679 156.31586 137.98282Q156.11987 138.62883 155.89244 139.26445Q155.66501 139.90009 155.40668 140.52377Q155.14832 141.14749 154.85968 141.75775Q154.57106 142.36803 154.25284 142.96339Q153.9346 143.55878 153.58752 144.13782Q153.24045 144.71686 152.8654 145.27817Q152.49034 145.83948 152.0882 146.38173Q151.68605 146.92395 151.25778 147.4458Q150.82951 147.96765 150.37614 148.46785Q149.92279 148.96806 149.44542 149.44542Q148.96806 149.92279 148.46786 150.37614Q147.96765 150.8295 147.4458 151.25777Q146.92395 151.68604 146.38173 152.0882Q145.83948 152.49033 145.27817 152.86539Q144.71686 153.24045 144.13782 153.58751Q143.55878 153.93459 142.96339 154.25282Q142.36803 154.57104 141.75775 154.85968Q141.14749 155.14832 140.52377 155.40668Q139.90009 155.66501 139.26445 155.89244Q138.62883 156.11987 137.98282 156.31586Q137.33679 156.51181 136.68193 156.67584Q136.02708 156.83987 135.36497 156.97159Q134.70285 157.1033 134.03506 157.20235Q133.36729 157.30142 132.69547 157.36758Q132.02362 157.43375 131.34935 157.46687Q130.67508 157.5 130 157.5L80 157.5Q79.324913 157.5 78.650635 157.46687Q77.976364 157.43375 77.304535 157.36758Q76.632698 157.30142 75.96492 157.20235Q75.297134 157.1033 74.635017 156.97159Q73.9729 156.83987 73.318039 156.67584Q72.663185 156.51181 72.017166 156.31586Q71.37114 156.11987 70.735519 155.89244Q70.099899 155.66501 69.476196 155.40668Q68.852501 155.14832 68.242233 154.85968Q67.631958 154.57106 67.036583 154.25284Q66.441208 153.9346 65.862167 153.58752Q65.283127 153.24045 64.721809 152.8654Q64.160492 152.49034 63.618263 152.0882Q63.076027 151.68605 62.554184 151.25778Q62.032333 150.82951 61.532124 150.37614Q61.031914 149.92279 60.554558 149.44542Q60.077198 148.96806 59.623837 148.46786Q59.170471 147.96765 58.742203 147.4458Q58.313931 146.92395 57.911781 146.38173Q57.509632 145.83948 57.134575 145.27817Q56.759514 144.71686 56.412453 144.13782Q56.065392 143.55878 55.747158 142.96339Q55.428925 142.36803 55.140285 141.75775Q54.85165 141.14749 54.593307 140.52377Q54.334961 139.90009 54.107536 139.26445Q53.880104 138.62883 53.684139 137.98282Q53.488167 137.33679 53.324135 136.68193Q53.160103 136.02708 53.0284 135.36497Q52.896698 134.70285 52.797642 134.03506Q52.698586 133.36729 52.63242 132.69547Q52.566246 132.02362 52.533123 131.34935Q52.5 130.67508 52.5 130L52.5 80Q52.5 79.324913 52.533123 78.650635Q52.566246 77.976364 52.63242 77.304535Q52.698586 76.632698 52.797646 75.96492Q52.896698 75.297134 53.0284 74.635017Q53.160103 73.9729 53.324135 73.318039Q53.488167 72.663185 53.684135 72.017166Q53.880104 71.37114 54.107533 70.735519Q54.334961 70.099899 54.593307 69.476196Q54.85165 68.852501 55.140289 68.242233Q55.428925 67.631958 55.747162 67.036583Q56.065392 66.441208 56.412453 65.862167Q56.759514 65.283127 57.134575 64.721809Q57.509632 64.160492 57.911781 63.618263Q58.313931 63.076027 58.742203 62.554184Q59.170471 62.032333 59.623837 61.532124Q60.077198 61.031914 60.554558 60.554558Q61.031914 60.077198 61.532127 59.623837Q62.032333 59.170475 62.554184 58.742207Q63.076027 58.313934 63.618263 57.911781Q64.160492 57.509636 64.721809 57.134579Q65.283127 56.759518 65.862175 56.412453Q66.441216 56.065392 67.036591 55.747158Q67.631958 55.428925 68.242233 55.140285Q68.852501 54.85165 69.476196 54.593307Q70.099899 54.334965 70.735519 54.107536Q71.37114 53.880108 72.017166 53.684143Q72.663177 53.488174 73.318039 53.324142Q73.972893 53.160107 74.63501 53.028404Q75.297134 52.896702 75.96492 52.797646Q76.632698 52.698593 77.304535 52.632423Q77.976364 52.566254 78.650642 52.533123Q79.324913 52.5 80 52.5L105 52.5Z"/>
	<path fill="none" stroke="#FF8A8A" stroke-width="2.5" stroke-linecap="round" stroke-linejoin="round" transform="matrix(-0.5 0.866025 -0.866025 -0.5 248.433 66.5673)" d="M105 62.5L125 62.5Q125.55235 62.5 126.10403 62.527103Q126.6557 62.554207 127.20539 62.608345Q127.75507 62.662483 128.30142 62.743526Q128.84779 62.82457 129.38953 62.932327Q129.93124 63.040085 130.46704 63.17429Q131.00282 63.308502 131.53139 63.468838Q132.05994 63.629173 132.57999 63.815247Q133.10005 64.001328 133.61035 64.2127Q134.12067 64.424072 134.61996 64.660225Q135.11929 64.896378 135.60641 65.156761Q136.09354 65.41713 136.56731 65.701096Q137.04108 65.985062 137.50032 66.291931Q137.95958 66.598801 138.40323 66.927826Q138.84688 67.256859 139.27385 67.607262Q139.70081 67.957657 140.11006 68.32859Q140.51932 68.699524 140.9099 69.090088Q141.30046 69.480652 141.67139 69.889915Q142.04233 70.299171 142.39273 70.726143Q142.74313 71.153107 143.07214 71.596756Q143.40118 72.040405 143.70805 72.499657Q144.01492 72.958908 144.29889 73.432671Q144.58286 73.906433 144.84323 74.393562Q145.10361 74.880684 145.33975 75.380005Q145.5759 75.879318 145.78728 76.389618Q145.99866 76.899918 146.18474 77.419968Q146.37082 77.940025 146.53116 78.46859Q146.6915 78.997147 146.82571 79.532944Q146.95992 80.068733 147.06767 80.610466Q147.17543 81.152191 147.25647 81.698563Q147.33752 82.244926 147.39166 82.794617Q147.4458 83.344299 147.47289 83.895981Q147.5 84.447655 147.5 85L147.5 125Q147.5 125.55235 147.47289 126.10403Q147.4458 126.6557 147.39166 127.20539Q147.33752 127.75507 147.25647 128.30142Q147.17542 128.84779 147.06766 129.38953Q146.9599 129.93124 146.8257 130.46704Q146.6915 131.00282 146.53116 131.53139Q146.37082 132.05994 146.18474 132.57999Q145.99866 133.10005 145.78728 133.61035Q145.5759 134.12067 145.33975 134.61996Q145.10361 135.11929 144.84323 135.60641Q144.58286 136.09354 144.29889 136.56731Q144.01492 137.04108 143.70805 137.50032Q143.40118 137.95958 143.07216 138.40323Q142.74313 138.84688 142.39273 139.27385Q142.04233 139.70081 141.67139 140.11006Q141.30046 140.51932 140.9099 140.9099Q140.51932 141.30046 140.11006 141.67139Q139.70081 142.04233 139.27383 142.39273Q138.84686 142.74313 138.40323 143.07214Q137.95958 143.40118 137.50032 143.70805Q137.04108 144.01492 136.56732 144.29889Q136.09355 144.58286 135.60643 144.84323Q135.11929 145.10361 134.62 145.33975Q134.12067 145.5759 133.61037 145.78728Q133.10007 145.99866 132.58002 146.18474Q132.05995 146.37082 131.5314 146.53116Q131.00284 146.6915 130.46704 146.82571Q129.93126 146.95992 129.38953 147.06767Q128.84779 147.17543 128.30144 147.25647Q127.75507 147.33752 127.2054 147.39166Q126.65571 147.4458 126.10403 147.47289Q125.55235 147.5 125 147.5L85 147.5Q84.447655 147.5 83.895973 147.47289Q83.344299 147.4458 82.794617 147.39166Q82.244926 147.33752 81.698555 147.25647Q81.152191 147.17542 80.610458 147.06766Q80.068726 146.9599 79.532936 146.8257Q78.997147 146.6915 78.46859 146.53116Q77.940025 146.37082 77.419968 146.18474Q76.89991 145.99866 76.38961 145.78728Q75.879303 145.5759 75.37999 145.33975Q74.880676 145.10361 74.393562 144.84323Q73.906433 144.58286 73.432671 144.29889Q72.958908 144.01492 72.499657 143.70805Q72.040405 143.40118 71.596756 143.07216Q71.153107 142.74313 70.726143 142.39273Q70.299171 142.04233 69.889908 141.67139Q69.480652 141.30046 69.090088 140.9099Q68.699524 140.51932 68.32859 140.11006Q67.957657 139.70081 67.607262 139.27383Q67.256859 138.84686 66.927826 138.40323Q66.598793 137.95958 66.291924 137.50032Q65.985062 137.04108 65.701096 136.56732Q65.41713 136.09355 65.156761 135.60643Q64.896378 135.11929 64.660225 134.62Q64.424072 134.12067 64.2127 133.61037Q64.001328 133.10007 63.815247 132.58002Q63.629173 132.05995 63.468838 131.5314Q63.308502 131.00284 63.17429 130.46704Q63.040085 129.93126 62.932327 129.38953Q62.82457 128.84779 62.743526 128.30144Q62.662483 127.75507 62.608345 127.2054Q62.554203 126.65571 62.5271 126.10403Q62.5 125.55235 62.5 125L62.5 85Q62.5 84.447655 62.5271 83.895973Q62.554203 83.344299 62.608345 82.794617Q62.662483 82.244926 62.743523 81.698555Q62.82457 81.152191 62.932327 80.610458Q63.040085 80.068726 63.17429 79.532936Q63.308498 78.997147 63.468834 78.46859Q63.629169 77.940025 63.815247 77.419968Q64.001328 76.89991 64.2127 76.38961Q64.424072 75.879303 64.660225 75.37999Q64.896378 74.880676 65.156761 74.393562Q65.41713 73.906433 65.701096 73.432671Q65.985046 72.958908 66.291916 72.499657Q66.598785 72.040405 66.927818 71.596756Q67.256851 71.153107 67.607262 70.726143Q67.957657 70.299171 68.32859 69.889908Q68.699524 69.480652 69.090088 69.090088Q69.480652 68.699524 69.889915 68.32859Q70.299171 67.957657 70.726143 67.607262Q71.153107 67.256859 71.596756 66.927826Q72.040405 66.598793 72.499657 66.291924Q72.958908 65.985062 73.432671 65.701096Q73.906433 65.41713 74.393562 65.156761Q74.880684 64.896378 75.380005 64.660225Q75.879318 64.424072 76.389618 64.2127Q76.899918 64.001328 77.419968 63.815247Q77.940025 63.629173 78.46859 63.468838Q78.997147 63.308502 79.532944 63.17429Q80.068733 63.040085 80.610466 62.932327Q81.152191 62.82457 81.698563 62.743526Q82.244926 62.662483 82.794617 62.608345Q83.344299 62.554207 83.895981 62.5271Q84.447655 62.5 85 62.5L105 62.5Z"/>
	<path fill="none" stroke="#FF8A8A" stroke-width="2.5" stroke-linecap="round" stroke-linejoin="round" transform="matrix(-0.707107 0.707107 -0.707107 -0.707107 253.492 105)" d="M105 72.5L120 72.5Q120.4296 72.5 120.85869 72.52108Q121.28777 72.54216 121.7153 72.584274Q122.14283 72.626373 122.56777 72.689415Q122.99272 72.752441 123.41407 72.836258Q123.83542 72.920067 124.25215 73.024445Q124.66888 73.12883 125.07999 73.25354Q125.49108 73.37825 125.89556 73.522972Q126.30005 73.667702 126.69695 73.8321Q127.09384 73.996506 127.48219 74.180176Q127.87054 74.363861 128.24942 74.566376Q128.6283 74.76889 128.99677 74.989746Q129.36526 75.210602 129.72246 75.449272Q130.07965 75.687943 130.42471 75.943863Q130.76978 76.199776 131.10187 76.472321Q131.43396 76.74485 131.75226 77.033348Q132.07059 77.321854 132.37436 77.625626Q132.67813 77.929398 132.96663 78.247704Q133.25513 78.566025 133.52768 78.898109Q133.8002 79.230194 134.05612 79.575256Q134.31204 79.920311 134.5507 80.277512Q134.78938 80.634712 135.01025 81.003189Q135.23111 81.371674 135.43361 81.750557Q135.63612 82.129425 135.81979 82.517776Q136.00348 82.906128 136.16788 83.303032Q136.33228 83.699936 136.47702 84.104424Q136.62173 84.508911 136.74646 84.920013Q136.87115 85.331116 136.97556 85.747841Q137.07993 86.164566 137.16374 86.585915Q137.24756 87.007263 137.31059 87.43222Q137.37363 87.85717 137.41574 88.284706Q137.45784 88.712234 137.47891 89.141319Q137.5 89.570404 137.5 90L137.5 120Q137.5 120.4296 137.47891 120.85869Q137.45784 121.28777 137.41574 121.7153Q137.37363 122.14283 137.31059 122.56777Q137.24756 122.99272 137.16374 123.41407Q137.07993 123.83542 136.97556 124.25215Q136.87115 124.66888 136.74646 125.07999Q136.62173 125.49108 136.47702 125.89556Q136.33228 126.30005 136.16788 126.69695Q136.00348 127.09384 135.81979 127.48219Q135.63612 127.87054 135.43361 128.24942Q135.23111 128.6283 135.01024 128.99677Q134.78938 129.36526 134.5507 129.72246Q134.31204 130.07965 134.05612 130.42471Q133.8002 130.76978 133.52768 131.10187Q133.25513 131.43396 132.96664 131.75226Q132.67813 132.07059 132.37436 132.37436Q132.07059 132.67813 131.75227 132.96663Q131.43396 133.25513 131.10187 133.52768Q130.76978 133.8002 130.42471 134.05612Q130.07965 134.31204 129.72246 134.5507Q129.36526 134.78938 128.99678 135.01025Q128.6283 135.23111 128.24944 135.43361Q127.87056 135.63612 127.4822 135.81979Q127.09384 136.00348 126.69695 136.16788Q126.30005 136.33228 125.89556 136.47702Q125.49107 136.62173 125.07997 136.74646Q124.66887 136.87115 124.25214 136.97556Q123.83542 137.07993 123.41407 137.16374Q122.99272 137.24756 122.56778 137.31059Q122.14283 137.37363 121.7153 137.41574Q121.28777 137.45784 120.85869 137.47891Q120.4296 137.5 120 137.5L90 137.5Q89.570404 137.5 89.141327 137.47891Q88.712234 137.45784 88.284706 137.41574Q87.85717 137.37363 87.432213 137.31059Q87.007263 137.24756 86.585915 137.16374Q86.164566 137.07993 85.747849 136.97556Q85.331116 136.87115 84.920013 136.74646Q84.508911 136.62173 84.104424 136.47702Q83.699936 136.33228 83.303032 136.16788Q82.906128 136.00348 82.517776 135.81979Q82.129425 135.63612 81.750549 135.43361Q81.371674 135.23111 81.003197 135.01024Q80.634712 134.78938 80.277512 134.5507Q79.920311 134.31204 79.575256 134.05612Q79.230194 133.8002 78.898117 133.52768Q78.566025 133.25513 78.247711 132.96664Q77.929398 132.67813 77.625626 132.37436Q77.321854 132.07059 77.033348 131.75227Q76.744843 131.43396 76.472313 131.10187Q76.199768 130.76978 75.943863 130.42471Q75.687943 130.07965 75.449272 129.72246Q75.210594 129.36526 74.989738 128.99678Q74.768875 128.6283 74.566368 128.24944Q74.363861 127.87056 74.180176 127.4822Q73.996506 127.09384 73.8321 126.69695Q73.667694 126.30005 73.522964 125.89556Q73.378242 125.49107 73.25354 125.07997Q73.12883 124.66887 73.024445 124.25214Q72.920059 123.83542 72.83625 123.41407Q72.752441 122.99272 72.689407 122.56778Q72.626373 122.14283 72.584267 121.7153Q72.54216 121.28777 72.521072 120.85869Q72.5 120.4296 72.5 120L72.5 90Q72.5 89.570404 72.52108 89.141327Q72.54216 88.712234 72.584274 88.284706Q72.626373 87.85717 72.689407 87.432213Q72.752441 87.007263 72.83625 86.585915Q72.920059 86.164566 73.024445 85.747849Q73.12883 85.331116 73.25354 84.920013Q73.378242 84.508911 73.522972 84.104424Q73.667694 83.699936 73.8321 83.303032Q73.996506 82.906128 74.180176 82.517776Q74.363861 82.129425 74.566368 81.750549Q74.768875 81.371674 74.989731 81.003197Q75.210594 80.634712 75.449272 80.277512Q75.687943 79.920311 75.943855 79.575256Q76.199768 79.230194 76.472305 78.898117Q76.744843 78.566025 77.033348 78.247711Q77.321854 77.929398 77.625626 77.625626Q77.929398 77.321854 78.247704 77.033348Q78.566025 76.744843 78.898109 76.472313Q79.230194 76.199768 79.575256 75.943863Q79.920311 75.687943 80.277512 75.449272Q80.634712 75.210602 81.003189 74.989738Q81.371674 74.768883 81.750557 74.566368Q82.129425 74.363861 82.517776 74.180176Q82.906128 73.996506 83.303032 73.8321Q83.699936 73.667702 84.104424 73.52298Q84.508911 73.37825 84.920013 73.253548Q85.331116 73.128838 85.747841 73.024452Q86.164566 72.920067 86.585915 72.836258Q87.007263 72.752441 87.43222 72.689415Q87.85717 72.626373 88.284706 72.584274Q88.712234 72.54216 89.141319 72.521072Q89.570404 72.5 90 72.5L105 72.5Z"/>
	<path fill="none" stroke="#FF8A8A" stroke-width="2.5" stroke-linecap="round" stroke-linejoin="round" transform="matrix(-0.866025 0.5 -0.5 -0.866025 248.433 143.433)" d="M105 82.5L115 82.5Q115.30685 82.5 115.61334 82.515053Q115.91983 82.530113 116.22522 82.560196Q116.53059 82.590271 116.83414 82.635292Q117.13766 82.680313 117.43862 82.740181Q117.73958 82.800049 118.03725 82.874603Q118.33491 82.949165 118.62856 83.038239Q118.9222 83.127319 119.21111 83.230698Q119.50003 83.334076 119.78352 83.4515Q120.06702 83.568924 120.34442 83.700127Q120.62181 83.831329 120.89244 83.975983Q121.16307 84.120636 121.42627 84.278381Q121.68947 84.436142 121.94461 84.606613Q122.19975 84.7771 122.44623 84.959892Q122.6927 85.142685 122.9299 85.337364Q123.16711 85.532028 123.39447 85.738098Q123.62184 85.944168 123.83882 86.161156Q124.0558 86.378136 124.26187 86.605507Q124.46795 86.83287 124.66262 87.070084Q124.85728 87.307281 125.04007 87.553749Q125.22287 87.800217 125.39335 88.055359Q125.56383 88.310501 125.72159 88.573708Q125.87935 88.836914 126.024 89.107536Q126.16865 89.378159 126.29984 89.655548Q126.43105 89.932945 126.54848 90.216446Q126.66591 90.499947 126.76929 90.788864Q126.87267 91.077789 126.96175 91.371437Q127.05083 91.665085 127.12538 91.962746Q127.19995 92.260406 127.25981 92.561371Q127.31968 92.862335 127.3647 93.165871Q127.40974 93.469406 127.43982 93.774788Q127.46989 94.08017 127.48495 94.386658Q127.5 94.693146 127.5 95L127.5 115Q127.5 115.30685 127.48494 115.61334Q127.46989 115.91983 127.43982 116.22522Q127.40974 116.53059 127.3647 116.83414Q127.31968 117.13766 127.25981 117.43862Q127.19995 117.73958 127.12539 118.03725Q127.05083 118.33491 126.96175 118.62856Q126.87267 118.9222 126.76929 119.21111Q126.66591 119.50003 126.54848 119.78352Q126.43105 120.06702 126.29986 120.34442Q126.16866 120.62181 126.02401 120.89244Q125.87935 121.16307 125.72159 121.42627Q125.56384 121.68947 125.39336 121.94461Q125.22288 122.19975 125.04008 122.44623Q124.85729 122.6927 124.66263 122.9299Q124.46796 123.16711 124.26188 123.39447Q124.0558 123.62184 123.83883 123.83882Q123.62185 124.0558 123.39449 124.26187Q123.16712 124.46795 122.92992 124.66262Q122.6927 124.85728 122.44624 125.04007Q122.19976 125.22287 121.94462 125.39335Q121.68948 125.56383 121.42628 125.72159Q121.16308 125.87935 120.89246 126.024Q120.62183 126.16865 120.34443 126.29984Q120.06703 126.43105 119.78354 126.54848Q119.50004 126.66591 119.21112 126.76929Q118.9222 126.87267 118.62856 126.96175Q118.33491 127.05083 118.03725 127.12538Q117.73958 127.19995 117.43862 127.25981Q117.13766 127.31968 116.83413 127.3647Q116.53059 127.40974 116.22522 127.43982Q115.91983 127.46989 115.61335 127.48494Q115.30685 127.5 115 127.5L95 127.5Q94.693146 127.5 94.386658 127.48494Q94.08017 127.46989 93.774788 127.43982Q93.469406 127.40974 93.165871 127.3647Q92.862335 127.31968 92.561371 127.25981Q92.260406 127.19995 91.962753 127.12539Q91.665085 127.05083 91.371445 126.96175Q91.077797 126.87267 90.788872 126.76929Q90.499954 126.66591 90.216454 126.54848Q89.932953 126.43105 89.655563 126.29986Q89.378159 126.16866 89.107544 126.02401Q88.836914 125.87935 88.573708 125.72159Q88.310501 125.56384 88.055359 125.39336Q87.800217 125.22288 87.553741 125.04008Q87.307281 124.85729 87.070076 124.66263Q86.83287 124.46796 86.605499 124.26188Q86.378136 124.0558 86.161156 123.83883Q85.944168 123.62185 85.738098 123.39449Q85.532028 123.16712 85.337364 122.92992Q85.142685 122.6927 84.959892 122.44624Q84.7771 122.19976 84.606613 121.94462Q84.436142 121.68948 84.278381 121.42628Q84.120628 121.16308 83.975975 120.89246Q83.831314 120.62183 83.700119 120.34443Q83.568916 120.06703 83.451492 119.78354Q83.334061 119.50004 83.23069 119.21112Q83.127319 118.9222 83.038239 118.62856Q82.949165 118.33491 82.874603 118.03725Q82.800041 117.73958 82.740173 117.43862Q82.680313 117.13766 82.635292 116.83413Q82.590271 116.53059 82.560196 116.22522Q82.530113 115.91983 82.515053 115.61335Q82.5 115.30685 82.5 115L82.5 95Q82.5 94.693146 82.515053 94.386658Q82.530113 94.08017 82.560196 93.774788Q82.590271 93.469406 82.635292 93.165871Q82.680313 92.862335 82.740181 92.561371Q82.800049 92.260406 82.874603 91.962753Q82.949165 91.665085 83.038239 91.371445Q83.127319 91.077797 83.230698 90.788872Q83.334076 90.499954 83.4515 90.216454Q83.568924 89.932953 83.700127 89.655563Q83.831329 89.378159 83.975983 89.107544Q84.120636 88.836914 84.278381 88.573708Q84.436142 88.310501 84.606613 88.055359Q84.7771 87.800217 84.959892 87.553741Q85.142685 87.307281 85.337364 87.070076Q85.532028 86.83287 85.738098 86.605499Q85.944168 86.378136 86.161156 86.161156Q86.378136 85.944168 86.605507 85.738098Q86.83287 85.532028 87.070084 85.337364Q87.307281 85.142693 87.553749 84.9599Q87.800217 84.7771 88.055359 84.606621Q88.310501 84.436142 88.573708 84.278389Q88.836914 84.120636 89.107536 83.975983Q89.378159 83.831329 89.655548 83.700134Q89.932945 83.568924 90.216446 83.4515Q90.499947 83.334076 90.788864 83.230698Q91.077789 83.127319 91.371437 83.038246Q91.665085 82.949173 91.962746 82.874603Q92.260406 82.800049 92.561371 82.740181Q92.862335 82.680313 93.165871 82.635292Q93.469406 82.590271 93.774788 82.560196Q94.08017 82.530113 94.386658 82.515053Q94.693146 82.5 95 82.5L105 82.5Z"/>
	<path fill="none" stroke="#FF8A8A" stroke-width="2.5" stroke-linecap="round" stroke-linejoin="round" transform="matrix(-0.965926 0.258819 -0.258819 -0.965926 233.598 179.246)" d="M105 92.5L110 92.5Q110.18411 92.5 110.368 92.509041Q110.5519 92.518074 110.73512 92.536125Q110.91835 92.554169 111.10047 92.581177Q111.28259 92.608185 111.46317 92.644104Q111.64374 92.680023 111.82233 92.724754Q112.00093 92.769493 112.17712 92.822937Q112.3533 92.876389 112.52666 92.938408Q112.70001 93.000435 112.87011 93.070892Q113.04021 93.14135 113.20665 93.22007Q113.37309 93.29879 113.53546 93.385582Q113.69784 93.472382 113.85576 93.567032Q114.01367 93.661682 114.16676 93.763969Q114.31984 93.866257 114.46773 93.975937Q114.61562 94.085617 114.75794 94.202423Q114.90026 94.319221 115.03668 94.442863Q115.1731 94.566505 115.30328 94.696693Q115.43347 94.826881 115.55711 94.963303Q115.68076 95.099724 115.79756 95.24205Q115.91436 95.384369 116.02403 95.532249Q116.13371 95.68013 116.236 95.833214Q116.33829 95.986298 116.43295 96.144218Q116.5276 96.302139 116.6144 96.464516Q116.70119 96.626884 116.77991 96.79332Q116.85863 96.959763 116.92908 97.12986Q116.99954 97.299957 117.06157 97.473312Q117.1236 97.646667 117.17705 97.822861Q117.23048 97.999039 117.27522 98.177643Q117.31996 98.356239 117.35588 98.536819Q117.3918 98.717392 117.41882 98.899521Q117.44583 99.081642 117.46388 99.264877Q117.48193 99.448097 117.49096 99.631989Q117.5 99.81588 117.5 100L117.5 110Q117.5 110.18411 117.49096 110.368Q117.48193 110.5519 117.46389 110.73512Q117.44583 110.91835 117.41882 111.10047Q117.3918 111.28259 117.35588 111.46317Q117.31996 111.64374 117.27522 111.82233Q117.23048 112.00093 117.17705 112.17712Q117.1236 112.3533 117.06157 112.52666Q116.99954 112.70001 116.92908 112.87011Q116.85863 113.04021 116.77991 113.20665Q116.70119 113.37309 116.6144 113.53546Q116.5276 113.69784 116.43294 113.85576Q116.33829 114.01367 116.236 114.16676Q116.13371 114.31984 116.02404 114.46773Q115.91437 114.61562 115.79757 114.75794Q115.68076 114.90026 115.55711 115.03668Q115.43347 115.1731 115.30328 115.30328Q115.1731 115.43347 115.03667 115.55711Q114.90025 115.68076 114.75793 115.79756Q114.61562 115.91436 114.46774 116.02403Q114.31985 116.13371 114.16676 116.236Q114.01367 116.33829 113.85576 116.43295Q113.69784 116.5276 113.53546 116.6144Q113.37309 116.70119 113.20665 116.77991Q113.04021 116.85863 112.87011 116.92908Q112.70001 116.99954 112.52666 117.06157Q112.3533 117.1236 112.17712 117.17705Q112.00093 117.23048 111.82234 117.27522Q111.64374 117.31996 111.46317 117.35588Q111.28259 117.3918 111.10047 117.41882Q110.91835 117.44583 110.73512 117.46388Q110.5519 117.48193 110.368 117.49096Q110.18411 117.5 110 117.5L100 117.5Q99.81588 117.5 99.631989 117.49096Q99.448097 117.48193 99.264877 117.46389Q99.081642 117.44583 98.899521 117.41882Q98.717392 117.3918 98.536819 117.35588Q98.356247 117.31996 98.177643 117.27522Q97.999054 117.23048 97.822868 117.17705Q97.646675 117.1236 97.473328 117.06157Q97.299973 116.99954 97.129868 116.92908Q96.959763 116.85863 96.79332 116.77991Q96.626892 116.70119 96.464523 116.6144Q96.302139 116.5276 96.144218 116.43294Q95.986298 116.33829 95.833206 116.236Q95.680115 116.13371 95.532242 116.02404Q95.384369 115.91437 95.24205 115.79757Q95.099724 115.68076 94.963303 115.55711Q94.826881 115.43347 94.696693 115.30328Q94.566505 115.1731 94.442863 115.03667Q94.319214 114.90025 94.202415 114.75793Q94.085617 114.61562 93.975929 114.46774Q93.866257 114.31985 93.763969 114.16676Q93.661682 114.01367 93.567032 113.85576Q93.472382 113.69784 93.38559 113.53546Q93.298798 113.37309 93.22007 113.20665Q93.14135 113.04021 93.070892 112.87011Q93.000427 112.70001 92.938408 112.52666Q92.876389 112.3533 92.822945 112.17712Q92.769501 112.00093 92.724754 111.82234Q92.680023 111.64374 92.644104 111.46317Q92.608185 111.28259 92.581177 111.10047Q92.554169 110.91835 92.536118 110.73512Q92.518066 110.5519 92.509033 110.368Q92.5 110.18411 92.5 110L92.5 100Q92.5 99.81588 92.509041 99.631989Q92.518074 99.448097 92.536125 99.264877Q92.554169 99.081642 92.581177 98.899521Q92.608185 98.717392 92.644104 98.536819Q92.680023 98.356247 92.724754 98.177643Q92.769493 97.999054 92.822937 97.822868Q92.876381 97.646675 92.938408 97.473328Q93.000427 97.299973 93.070892 97.129868Q93.14135 96.959763 93.22007 96.79332Q93.29879 96.626892 93.385582 96.464523Q93.472382 96.302139 93.567032 96.144218Q93.661682 95.986298 93.763969 95.833206Q93.866257 95.680115 93.975937 95.532242Q94.085617 95.384369 94.202423 95.24205Q94.319221 95.099724 94.442863 94.963303Q94.566505 94.826881 94.696693 94.696693Q94.826881 94.566505 94.963303 94.442863Q95.099724 94.319214 95.24205 94.202415Q95.384369 94.085617 95.532249 93.975929Q95.68013 93.866257 95.833214 93.763969Q95.986298 93.661682 96.144218 93.567032Q96.302139 93.472382 96.464516 93.38559Q96.626884 93.298798 96.79332 93.22007Q96.959763 93.14135 97.12986 93.070892Q97.299957 93.000435 97.473312 92.938408Q97.646667 92.876389 97.822861 92.822945Q97.999039 92.769501 98.177643 92.724762Q98.356239 92.680023 98.536819 92.644112Q98.717392 92.608192 98.899521 92.581184Q99.081642 92.554169 99.264877 92.536118Q99.448097 92.518066 99.631989 92.509033Q99.81588 92.5 100 92.5L105 92.5Z"/>
</svg>